STARTFONT 2.1
FONT -Adobe-Palatino-Bold-R-Normal--11-80-100-100-P-60-ISO8859-1
SIZE 8 100 100
FONTBOUNDINGBOX 14 11 -1 -3

STARTPROPERTIES 26
_DEC_DEVICE_FONTNAMES "PS=Palatino-Bold"
FONTNAME_REGISTRY ""
FAMILY_NAME "Palatino"
FOUNDRY "Adobe"
WEIGHT_NAME "Bold"
SLANT "R"
SETWIDTH_NAME "Normal"
ADD_STYLE_NAME ""
PIXEL_SIZE 11
POINT_SIZE 80
RESOLUTION_X 100
RESOLUTION_Y 100
SPACING "P"
AVERAGE_WIDTH 60
CHARSET_REGISTRY "ISO8859"
CHARSET_ENCODING "1"
CHARSET_COLLECTIONS "ASCII ISO8859-1 ADOBE-STANDARD"
FULL_NAME "Palatino Bold"
COPYRIGHT "Copyright (c) 1991 Adobe Systems, Inc."
CAP_HEIGHT 7
X_HEIGHT 5
WEIGHT 10
QUAD_WIDTH 7
DEFAULT_CHAR 0
FONT_DESCENT 3
FONT_ASCENT 8
ENDPROPERTIES

CHARS 190

STARTCHAR space
ENCODING 32
SWIDTH 250 0
DWIDTH 3 0
BBX 1 1 0 0
BITMAP
00
ENDCHAR

STARTCHAR exclam
ENCODING 33
SWIDTH 278 0
DWIDTH 4 0
BBX 2 7 1 0
BITMAP
C0
C0
C0
80
00
C0
C0
ENDCHAR

STARTCHAR quotedbl
ENCODING 34
SWIDTH 402 0
DWIDTH 5 0
BBX 3 3 1 4
BITMAP
A0
A0
A0
ENDCHAR

STARTCHAR numbersign
ENCODING 35
SWIDTH 500 0
DWIDTH 6 0
BBX 7 7 -1 0
BITMAP
14
14
7E
28
FC
50
50
ENDCHAR

STARTCHAR dollar
ENCODING 36
SWIDTH 500 0
DWIDTH 6 0
BBX 5 9 0 -1
BITMAP
20
78
A8
E0
78
38
A8
F0
20
ENDCHAR

STARTCHAR percent
ENCODING 37
SWIDTH 889 0
DWIDTH 9 0
BBX 8 7 1 0
BITMAP
66
BC
AC
DB
15
35
26
ENDCHAR

STARTCHAR ampersand
ENCODING 38
SWIDTH 833 0
DWIDTH 9 0
BBX 8 7 0 0
BITMAP
30
68
30
77
DC
D9
6E
ENDCHAR

STARTCHAR quoteright
ENCODING 39
SWIDTH 278 0
DWIDTH 4 0
BBX 3 3 0 4
BITMAP
60
60
C0
ENDCHAR

STARTCHAR parenleft
ENCODING 40
SWIDTH 333 0
DWIDTH 4 0
BBX 3 9 0 -1
BITMAP
20
40
C0
C0
C0
C0
C0
40
20
ENDCHAR

STARTCHAR parenright
ENCODING 41
SWIDTH 333 0
DWIDTH 4 0
BBX 3 9 0 -1
BITMAP
80
40
60
60
60
60
60
40
80
ENDCHAR

STARTCHAR asterisk
ENCODING 42
SWIDTH 444 0
DWIDTH 7 0
BBX 5 4 1 3
BITMAP
50
70
F8
20
ENDCHAR

STARTCHAR plus
ENCODING 43
SWIDTH 606 0
DWIDTH 6 0
BBX 5 5 0 0
BITMAP
20
20
F8
20
20
ENDCHAR

STARTCHAR comma
ENCODING 44
SWIDTH 250 0
DWIDTH 3 0
BBX 3 3 -1 -1
BITMAP
60
60
C0
ENDCHAR

STARTCHAR minus
ENCODING 45
SWIDTH 606 0
DWIDTH 6 0
BBX 4 1 1 2
BITMAP
F0
ENDCHAR

STARTCHAR period
ENCODING 46
SWIDTH 250 0
DWIDTH 3 0
BBX 2 2 0 0
BITMAP
C0
C0
ENDCHAR

STARTCHAR slash
ENCODING 47
SWIDTH 296 0
DWIDTH 4 0
BBX 4 7 0 0
BITMAP
10
20
20
40
40
80
80
ENDCHAR

STARTCHAR zero
ENCODING 48
SWIDTH 500 0
DWIDTH 5 0
BBX 5 7 0 0
BITMAP
70
D8
D8
D8
D8
D8
70
ENDCHAR

STARTCHAR one
ENCODING 49
SWIDTH 500 0
DWIDTH 5 0
BBX 5 7 0 0
BITMAP
30
F0
30
30
30
30
78
ENDCHAR

STARTCHAR two
ENCODING 50
SWIDTH 500 0
DWIDTH 5 0
BBX 5 7 0 0
BITMAP
70
98
98
30
60
F8
F8
ENDCHAR

STARTCHAR three
ENCODING 51
SWIDTH 500 0
DWIDTH 5 0
BBX 5 7 0 0
BITMAP
78
D8
18
30
18
D8
78
ENDCHAR

STARTCHAR four
ENCODING 52
SWIDTH 500 0
DWIDTH 5 0
BBX 5 7 0 0
BITMAP
10
30
70
B0
F8
30
78
ENDCHAR

STARTCHAR five
ENCODING 53
SWIDTH 500 0
DWIDTH 5 0
BBX 5 7 0 0
BITMAP
F8
80
F0
D8
18
D8
70
ENDCHAR

STARTCHAR six
ENCODING 54
SWIDTH 500 0
DWIDTH 5 0
BBX 5 7 0 0
BITMAP
38
60
C0
F0
D8
D8
70
ENDCHAR

STARTCHAR seven
ENCODING 55
SWIDTH 500 0
DWIDTH 5 0
BBX 5 7 0 0
BITMAP
F8
98
10
30
30
60
60
ENDCHAR

STARTCHAR eight
ENCODING 56
SWIDTH 500 0
DWIDTH 5 0
BBX 5 7 0 0
BITMAP
70
D8
D8
70
D8
D8
70
ENDCHAR

STARTCHAR nine
ENCODING 57
SWIDTH 500 0
DWIDTH 5 0
BBX 5 7 0 0
BITMAP
70
D8
D8
78
18
30
60
ENDCHAR

STARTCHAR colon
ENCODING 58
SWIDTH 250 0
DWIDTH 3 0
BBX 2 5 0 0
BITMAP
C0
C0
00
C0
C0
ENDCHAR

STARTCHAR semicolon
ENCODING 59
SWIDTH 250 0
DWIDTH 3 0
BBX 3 6 -1 -1
BITMAP
60
60
00
60
60
C0
ENDCHAR

STARTCHAR less
ENCODING 60
SWIDTH 606 0
DWIDTH 6 0
BBX 5 5 0 0
BITMAP
18
70
C0
70
18
ENDCHAR

STARTCHAR equal
ENCODING 61
SWIDTH 606 0
DWIDTH 6 0
BBX 5 3 0 1
BITMAP
F8
00
F8
ENDCHAR

STARTCHAR greater
ENCODING 62
SWIDTH 606 0
DWIDTH 6 0
BBX 5 5 1 0
BITMAP
C0
70
18
70
C0
ENDCHAR

STARTCHAR question
ENCODING 63
SWIDTH 444 0
DWIDTH 6 0
BBX 4 7 1 0
BITMAP
70
B0
20
40
00
60
60
ENDCHAR

STARTCHAR at
ENCODING 64
SWIDTH 747 0
DWIDTH 9 0
BBX 7 7 1 0
BITMAP
38
44
9A
AA
B4
42
3C
ENDCHAR

STARTCHAR A
ENCODING 65
SWIDTH 778 0
DWIDTH 7 0
BBX 8 7 -1 0
BITMAP
18
18
2C
2C
7E
46
EF
ENDCHAR

STARTCHAR B
ENCODING 66
SWIDTH 667 0
DWIDTH 8 0
BBX 7 7 0 0
BITMAP
F8
6C
6C
78
66
66
FC
ENDCHAR

STARTCHAR C
ENCODING 67
SWIDTH 722 0
DWIDTH 8 0
BBX 7 7 0 0
BITMAP
3E
62
C0
C0
C0
66
3C
ENDCHAR

STARTCHAR D
ENCODING 68
SWIDTH 833 0
DWIDTH 9 0
BBX 8 7 0 0
BITMAP
FC
66
63
63
63
66
FC
ENDCHAR

STARTCHAR E
ENCODING 69
SWIDTH 611 0
DWIDTH 7 0
BBX 6 7 0 0
BITMAP
FC
64
60
78
60
64
FC
ENDCHAR

STARTCHAR F
ENCODING 70
SWIDTH 556 0
DWIDTH 6 0
BBX 6 7 0 0
BITMAP
FC
64
60
78
60
60
F0
ENDCHAR

STARTCHAR G
ENCODING 71
SWIDTH 833 0
DWIDTH 8 0
BBX 7 7 0 0
BITMAP
3E
62
C0
C0
CE
66
3C
ENDCHAR

STARTCHAR H
ENCODING 72
SWIDTH 833 0
DWIDTH 9 0
BBX 8 7 0 0
BITMAP
E7
66
66
7E
66
66
E7
ENDCHAR

STARTCHAR I
ENCODING 73
SWIDTH 389 0
DWIDTH 5 0
BBX 4 7 0 0
BITMAP
F0
60
60
60
60
60
F0
ENDCHAR

STARTCHAR J
ENCODING 74
SWIDTH 389 0
DWIDTH 4 0
BBX 4 9 0 -2
BITMAP
F0
60
60
60
60
60
60
60
C0
ENDCHAR

STARTCHAR K
ENCODING 75
SWIDTH 778 0
DWIDTH 8 0
BBX 8 7 0 0
BITMAP
E6
6C
78
78
6C
66
E7
ENDCHAR

STARTCHAR L
ENCODING 76
SWIDTH 611 0
DWIDTH 6 0
BBX 6 7 0 0
BITMAP
F0
60
60
60
60
64
FC
ENDCHAR

STARTCHAR M
ENCODING 77
SWIDTH 1000 0
DWIDTH 11 0
BBX 10 7 0 0
BITMAP
E0C0
7180
7380
5B80
5D80
4D80
EDC0
ENDCHAR

STARTCHAR N
ENCODING 78
SWIDTH 833 0
DWIDTH 9 0
BBX 8 7 0 0
BITMAP
E7
72
7A
5E
4E
46
E2
ENDCHAR

STARTCHAR O
ENCODING 79
SWIDTH 833 0
DWIDTH 9 0
BBX 8 7 0 0
BITMAP
3C
66
C3
C3
C3
66
3C
ENDCHAR

STARTCHAR P
ENCODING 80
SWIDTH 611 0
DWIDTH 6 0
BBX 6 7 0 0
BITMAP
F8
6C
6C
78
60
60
F0
ENDCHAR

STARTCHAR Q
ENCODING 81
SWIDTH 833 0
DWIDTH 9 0
BBX 8 9 0 -2
BITMAP
3C
66
C3
C3
C3
66
3C
39
6E
ENDCHAR

STARTCHAR R
ENCODING 82
SWIDTH 722 0
DWIDTH 7 0
BBX 7 7 0 0
BITMAP
F8
6C
6C
78
6C
6C
E6
ENDCHAR

STARTCHAR S
ENCODING 83
SWIDTH 611 0
DWIDTH 6 0
BBX 5 7 0 0
BITMAP
78
C8
E0
78
18
98
F0
ENDCHAR

STARTCHAR T
ENCODING 84
SWIDTH 667 0
DWIDTH 7 0
BBX 6 7 0 0
BITMAP
FC
B4
30
30
30
30
78
ENDCHAR

STARTCHAR U
ENCODING 85
SWIDTH 778 0
DWIDTH 8 0
BBX 8 7 0 0
BITMAP
E7
62
62
62
62
76
3C
ENDCHAR

STARTCHAR V
ENCODING 86
SWIDTH 778 0
DWIDTH 8 0
BBX 8 7 0 0
BITMAP
E7
62
62
34
34
18
18
ENDCHAR

STARTCHAR W
ENCODING 87
SWIDTH 1000 0
DWIDTH 9 0
BBX 10 7 -1 0
BITMAP
EDC0
6C80
3680
3680
3B00
1B00
1B00
ENDCHAR

STARTCHAR X
ENCODING 88
SWIDTH 667 0
DWIDTH 7 0
BBX 7 7 0 0
BITMAP
EE
64
38
10
38
4C
EE
ENDCHAR

STARTCHAR Y
ENCODING 89
SWIDTH 667 0
DWIDTH 7 0
BBX 8 7 -1 0
BITMAP
E3
66
34
18
18
18
3C
ENDCHAR

STARTCHAR Z
ENCODING 90
SWIDTH 667 0
DWIDTH 7 0
BBX 6 7 0 0
BITMAP
FC
8C
18
30
60
C4
FC
ENDCHAR

STARTCHAR bracketleft
ENCODING 91
SWIDTH 333 0
DWIDTH 4 0
BBX 3 9 0 -1
BITMAP
E0
80
80
80
80
80
80
80
E0
ENDCHAR

STARTCHAR backslash
ENCODING 92
SWIDTH 606 0
DWIDTH 6 0
BBX 5 7 0 0
BITMAP
C0
40
60
20
30
10
18
ENDCHAR

STARTCHAR bracketright
ENCODING 93
SWIDTH 333 0
DWIDTH 4 0
BBX 3 9 0 -1
BITMAP
E0
20
20
20
20
20
20
20
E0
ENDCHAR

STARTCHAR asciicircum
ENCODING 94
SWIDTH 606 0
DWIDTH 6 0
BBX 5 4 0 3
BITMAP
20
70
D8
88
ENDCHAR

STARTCHAR underscore
ENCODING 95
SWIDTH 500 0
DWIDTH 5 0
BBX 5 1 0 -2
BITMAP
F8
ENDCHAR

STARTCHAR quoteleft
ENCODING 96
SWIDTH 278 0
DWIDTH 4 0
BBX 3 3 0 4
BITMAP
60
C0
C0
ENDCHAR

STARTCHAR a
ENCODING 97
SWIDTH 500 0
DWIDTH 5 0
BBX 4 5 0 0
BITMAP
E0
30
70
B0
F0
ENDCHAR

STARTCHAR b
ENCODING 98
SWIDTH 611 0
DWIDTH 6 0
BBX 6 7 -1 0
BITMAP
E0
60
78
6C
6C
68
70
ENDCHAR

STARTCHAR c
ENCODING 99
SWIDTH 444 0
DWIDTH 5 0
BBX 5 5 0 0
BITMAP
70
D0
C0
C8
70
ENDCHAR

STARTCHAR d
ENCODING 100
SWIDTH 611 0
DWIDTH 6 0
BBX 6 7 0 0
BITMAP
38
18
78
D8
D8
D8
6C
ENDCHAR

STARTCHAR e
ENCODING 101
SWIDTH 500 0
DWIDTH 6 0
BBX 5 5 0 0
BITMAP
70
D8
F8
C0
78
ENDCHAR

STARTCHAR f
ENCODING 102
SWIDTH 389 0
DWIDTH 3 0
BBX 4 7 -1 0
BITMAP
30
60
F0
60
60
60
F0
ENDCHAR

STARTCHAR g
ENCODING 103
SWIDTH 556 0
DWIDTH 6 0
BBX 6 8 0 -3
BITMAP
70
DC
D8
60
78
CC
C4
78
ENDCHAR

STARTCHAR h
ENCODING 104
SWIDTH 611 0
DWIDTH 6 0
BBX 7 7 -1 0
BITMAP
E0
60
78
6C
6C
6C
EE
ENDCHAR

STARTCHAR i
ENCODING 105
SWIDTH 333 0
DWIDTH 4 0
BBX 3 7 0 0
BITMAP
60
00
E0
60
60
60
E0
ENDCHAR

STARTCHAR j
ENCODING 106
SWIDTH 333 0
DWIDTH 4 0
BBX 3 10 0 -3
BITMAP
60
00
E0
60
60
60
60
60
60
C0
ENDCHAR

STARTCHAR k
ENCODING 107
SWIDTH 611 0
DWIDTH 6 0
BBX 7 7 -1 0
BITMAP
E0
60
6C
78
78
6C
E6
ENDCHAR

STARTCHAR l
ENCODING 108
SWIDTH 333 0
DWIDTH 3 0
BBX 4 7 -1 0
BITMAP
E0
60
60
60
60
60
F0
ENDCHAR

STARTCHAR m
ENCODING 109
SWIDTH 889 0
DWIDTH 9 0
BBX 10 5 -1 0
BITMAP
DB00
7F80
6D80
6D80
EDC0
ENDCHAR

STARTCHAR n
ENCODING 110
SWIDTH 611 0
DWIDTH 6 0
BBX 5 5 0 0
BITMAP
F0
D8
D8
D8
D8
ENDCHAR

STARTCHAR o
ENCODING 111
SWIDTH 556 0
DWIDTH 6 0
BBX 5 5 0 0
BITMAP
70
D8
D8
D8
70
ENDCHAR

STARTCHAR p
ENCODING 112
SWIDTH 611 0
DWIDTH 6 0
BBX 6 8 -1 -3
BITMAP
F8
6C
6C
68
70
60
60
F0
ENDCHAR

STARTCHAR q
ENCODING 113
SWIDTH 611 0
DWIDTH 6 0
BBX 6 8 0 -3
BITMAP
68
D8
D8
D8
78
18
18
3C
ENDCHAR

STARTCHAR r
ENCODING 114
SWIDTH 389 0
DWIDTH 4 0
BBX 4 5 0 0
BITMAP
D0
F0
C0
C0
C0
ENDCHAR

STARTCHAR s
ENCODING 115
SWIDTH 444 0
DWIDTH 5 0
BBX 4 5 0 0
BITMAP
70
C0
F0
30
E0
ENDCHAR

STARTCHAR t
ENCODING 116
SWIDTH 333 0
DWIDTH 4 0
BBX 4 7 -1 0
BITMAP
20
60
F0
60
60
60
30
ENDCHAR

STARTCHAR u
ENCODING 117
SWIDTH 611 0
DWIDTH 6 0
BBX 7 5 -1 0
BITMAP
EC
6C
6C
6C
36
ENDCHAR

STARTCHAR v
ENCODING 118
SWIDTH 556 0
DWIDTH 5 0
BBX 6 5 -1 0
BITMAP
EC
68
68
30
30
ENDCHAR

STARTCHAR w
ENCODING 119
SWIDTH 833 0
DWIDTH 8 0
BBX 9 5 -1 0
BITMAP
ED80
6D00
6E00
3600
3600
ENDCHAR

STARTCHAR x
ENCODING 120
SWIDTH 500 0
DWIDTH 5 0
BBX 5 5 0 0
BITMAP
D8
70
20
70
D8
ENDCHAR

STARTCHAR y
ENCODING 121
SWIDTH 556 0
DWIDTH 5 0
BBX 6 8 -1 -3
BITMAP
EC
6C
68
38
30
30
E0
C0
ENDCHAR

STARTCHAR z
ENCODING 122
SWIDTH 500 0
DWIDTH 5 0
BBX 5 5 0 0
BITMAP
F8
30
60
C0
F8
ENDCHAR

STARTCHAR braceleft
ENCODING 123
SWIDTH 310 0
DWIDTH 4 0
BBX 3 9 0 -1
BITMAP
20
40
40
40
80
40
40
40
20
ENDCHAR

STARTCHAR bar
ENCODING 124
SWIDTH 606 0
DWIDTH 5 0
BBX 1 7 2 0
BITMAP
80
80
80
80
80
80
80
ENDCHAR

STARTCHAR braceright
ENCODING 125
SWIDTH 310 0
DWIDTH 4 0
BBX 3 9 0 -1
BITMAP
80
40
40
40
20
40
40
40
80
ENDCHAR

STARTCHAR asciitilde
ENCODING 126
SWIDTH 606 0
DWIDTH 6 0
BBX 5 2 0 2
BITMAP
68
B0
ENDCHAR

STARTCHAR exclamdown
ENCODING 161
SWIDTH 278 0
DWIDTH 4 0
BBX 2 8 1 -3
BITMAP
C0
C0
00
80
C0
C0
C0
C0
ENDCHAR

STARTCHAR cent
ENCODING 162
SWIDTH 500 0
DWIDTH 6 0
BBX 5 8 1 -1
BITMAP
10
70
98
A0
A0
C8
70
40
ENDCHAR

STARTCHAR sterling
ENCODING 163
SWIDTH 500 0
DWIDTH 6 0
BBX 5 7 0 0
BITMAP
38
68
40
F0
40
E8
B8
ENDCHAR

STARTCHAR currency
ENCODING 164
SWIDTH 500 0
DWIDTH 6 0
BBX 6 5 0 1
BITMAP
B4
78
48
78
B4
ENDCHAR

STARTCHAR yen
ENCODING 165
SWIDTH 500 0
DWIDTH 6 0
BBX 5 7 0 0
BITMAP
88
50
F8
20
F8
20
70
ENDCHAR

STARTCHAR brokenbar
ENCODING 166
SWIDTH 606 0
DWIDTH 5 0
BBX 1 7 2 0
BITMAP
80
80
80
00
80
80
80
ENDCHAR

STARTCHAR section
ENCODING 167
SWIDTH 500 0
DWIDTH 6 0
BBX 5 10 0 -3
BITMAP
70
98
C0
F0
98
C8
78
18
C8
70
ENDCHAR

STARTCHAR dieresis
ENCODING 168
SWIDTH 333 0
DWIDTH 5 0
BBX 3 2 1 6
BITMAP
A0
A0
ENDCHAR

STARTCHAR copyright
ENCODING 169
SWIDTH 747 0
DWIDTH 8 0
BBX 8 7 0 0
BITMAP
3C
42
99
A1
99
42
3C
ENDCHAR

STARTCHAR ordfeminine
ENCODING 170
SWIDTH 438 0
DWIDTH 6 0
BBX 4 6 1 1
BITMAP
C0
60
E0
B0
00
F0
ENDCHAR

STARTCHAR guillemotleft
ENCODING 171
SWIDTH 500 0
DWIDTH 7 0
BBX 6 3 0 1
BITMAP
6C
D8
6C
ENDCHAR

STARTCHAR logicalnot
ENCODING 172
SWIDTH 606 0
DWIDTH 6 0
BBX 5 3 0 1
BITMAP
F8
08
08
ENDCHAR

STARTCHAR hyphen
ENCODING 173
SWIDTH 333 0
DWIDTH 4 0
BBX 3 1 0 2
BITMAP
E0
ENDCHAR

STARTCHAR registered
ENCODING 174
SWIDTH 747 0
DWIDTH 8 0
BBX 8 7 0 0
BITMAP
3C
42
B9
B1
A9
42
3C
ENDCHAR

STARTCHAR macron
ENCODING 175
SWIDTH 333 0
DWIDTH 4 0
BBX 3 1 0 6
BITMAP
E0
ENDCHAR

STARTCHAR degree
ENCODING 176
SWIDTH 400 0
DWIDTH 4 0
BBX 4 3 0 4
BITMAP
60
90
60
ENDCHAR

STARTCHAR plusminus
ENCODING 177
SWIDTH 606 0
DWIDTH 6 0
BBX 5 5 0 0
BITMAP
20
F8
20
00
F8
ENDCHAR

STARTCHAR twosuperior
ENCODING 178
SWIDTH 300 0
DWIDTH 3 0
BBX 3 4 0 3
BITMAP
60
A0
40
E0
ENDCHAR

STARTCHAR threesuperior
ENCODING 179
SWIDTH 300 0
DWIDTH 3 0
BBX 3 4 0 3
BITMAP
E0
40
20
C0
ENDCHAR

STARTCHAR acute
ENCODING 180
SWIDTH 333 0
DWIDTH 4 0
BBX 3 2 0 6
BITMAP
60
C0
ENDCHAR

STARTCHAR mu
ENCODING 181
SWIDTH 611 0
DWIDTH 6 0
BBX 7 8 -1 -3
BITMAP
EC
6C
6C
6C
76
60
60
60
ENDCHAR

STARTCHAR paragraph
ENCODING 182
SWIDTH 641 0
DWIDTH 8 0
BBX 7 9 0 -2
BITMAP
7E
D4
D4
74
14
14
14
14
3E
ENDCHAR

STARTCHAR periodcentered
ENCODING 183
SWIDTH 250 0
DWIDTH 3 0
BBX 2 2 0 2
BITMAP
C0
C0
ENDCHAR

STARTCHAR cedilla
ENCODING 184
SWIDTH 333 0
DWIDTH 4 0
BBX 3 3 0 -3
BITMAP
40
20
E0
ENDCHAR

STARTCHAR onesuperior
ENCODING 185
SWIDTH 300 0
DWIDTH 3 0
BBX 3 4 0 3
BITMAP
C0
40
40
E0
ENDCHAR

STARTCHAR ordmasculine
ENCODING 186
SWIDTH 488 0
DWIDTH 6 0
BBX 4 6 1 1
BITMAP
60
B0
B0
60
00
F0
ENDCHAR

STARTCHAR guillemotright
ENCODING 187
SWIDTH 500 0
DWIDTH 7 0
BBX 6 3 0 1
BITMAP
D8
6C
D8
ENDCHAR

STARTCHAR onequarter
ENCODING 188
SWIDTH 750 0
DWIDTH 8 0
BBX 8 7 0 0
BITMAP
CC
48
58
F2
36
2F
62
ENDCHAR

STARTCHAR onehalf
ENCODING 189
SWIDTH 750 0
DWIDTH 8 0
BBX 7 7 0 0
BITMAP
CC
48
58
F6
3A
24
6E
ENDCHAR

STARTCHAR threequarters
ENCODING 190
SWIDTH 750 0
DWIDTH 8 0
BBX 8 7 0 0
BITMAP
EC
48
38
D2
36
2F
62
ENDCHAR

STARTCHAR questiondown
ENCODING 191
SWIDTH 444 0
DWIDTH 5 0
BBX 4 8 0 -3
BITMAP
60
60
00
20
20
40
D0
E0
ENDCHAR

STARTCHAR Agrave
ENCODING 192
SWIDTH 778 0
DWIDTH 7 0
BBX 8 8 -1 0
BITMAP
18
0C
00
0C
14
3E
46
EF
ENDCHAR

STARTCHAR Aacute
ENCODING 193
SWIDTH 778 0
DWIDTH 7 0
BBX 8 8 -1 0
BITMAP
06
0C
00
0C
14
3E
46
EF
ENDCHAR

STARTCHAR Acircumflex
ENCODING 194
SWIDTH 778 0
DWIDTH 7 0
BBX 8 8 -1 0
BITMAP
0C
16
00
0C
14
3E
46
EF
ENDCHAR

STARTCHAR Atilde
ENCODING 195
SWIDTH 778 0
DWIDTH 7 0
BBX 8 8 -1 0
BITMAP
1A
2C
00
0C
14
3E
46
EF
ENDCHAR

STARTCHAR Adieresis
ENCODING 196
SWIDTH 778 0
DWIDTH 7 0
BBX 8 8 -1 0
BITMAP
14
14
00
0C
14
3E
46
EF
ENDCHAR

STARTCHAR Aring
ENCODING 197
SWIDTH 778 0
DWIDTH 7 0
BBX 8 8 -1 0
BITMAP
0C
12
0C
0C
14
3E
46
EF
ENDCHAR

STARTCHAR AE
ENCODING 198
SWIDTH 1000 0
DWIDTH 11 0
BBX 10 7 0 0
BITMAP
3FC0
1640
3600
2780
7E00
4640
EFC0
ENDCHAR

STARTCHAR Ccedilla
ENCODING 199
SWIDTH 722 0
DWIDTH 8 0
BBX 7 10 0 -3
BITMAP
3C
66
C0
C0
C0
66
3C
10
08
38
ENDCHAR

STARTCHAR Egrave
ENCODING 200
SWIDTH 611 0
DWIDTH 7 0
BBX 6 8 0 0
BITMAP
60
30
00
FC
64
70
64
FC
ENDCHAR

STARTCHAR Eacute
ENCODING 201
SWIDTH 611 0
DWIDTH 7 0
BBX 6 8 0 0
BITMAP
30
60
00
FC
64
70
64
FC
ENDCHAR

STARTCHAR Ecircumflex
ENCODING 202
SWIDTH 611 0
DWIDTH 7 0
BBX 6 8 0 0
BITMAP
30
58
00
FC
64
70
64
FC
ENDCHAR

STARTCHAR Edieresis
ENCODING 203
SWIDTH 611 0
DWIDTH 7 0
BBX 6 8 0 0
BITMAP
50
50
00
FC
64
70
64
FC
ENDCHAR

STARTCHAR Igrave
ENCODING 204
SWIDTH 389 0
DWIDTH 5 0
BBX 4 8 0 0
BITMAP
C0
60
00
F0
60
60
60
F0
ENDCHAR

STARTCHAR Iacute
ENCODING 205
SWIDTH 389 0
DWIDTH 5 0
BBX 4 8 0 0
BITMAP
60
C0
00
F0
60
60
60
F0
ENDCHAR

STARTCHAR Icircumflex
ENCODING 206
SWIDTH 389 0
DWIDTH 5 0
BBX 4 8 0 0
BITMAP
60
B0
00
F0
60
60
60
F0
ENDCHAR

STARTCHAR Idieresis
ENCODING 207
SWIDTH 389 0
DWIDTH 5 0
BBX 4 8 0 0
BITMAP
A0
A0
00
F0
60
60
60
F0
ENDCHAR

STARTCHAR Eth
ENCODING 208
SWIDTH 833 0
DWIDTH 9 0
BBX 8 7 0 0
BITMAP
FC
66
63
F3
63
66
FC
ENDCHAR

STARTCHAR Ntilde
ENCODING 209
SWIDTH 833 0
DWIDTH 9 0
BBX 8 8 0 0
BITMAP
34
58
00
E7
72
5A
4E
E6
ENDCHAR

STARTCHAR Ograve
ENCODING 210
SWIDTH 833 0
DWIDTH 9 0
BBX 8 8 0 0
BITMAP
30
18
00
3C
66
C3
66
3C
ENDCHAR

STARTCHAR Oacute
ENCODING 211
SWIDTH 833 0
DWIDTH 9 0
BBX 8 8 0 0
BITMAP
18
30
00
3C
66
C3
66
3C
ENDCHAR

STARTCHAR Ocircumflex
ENCODING 212
SWIDTH 833 0
DWIDTH 9 0
BBX 8 8 0 0
BITMAP
18
2C
00
3C
66
C3
66
3C
ENDCHAR

STARTCHAR Otilde
ENCODING 213
SWIDTH 833 0
DWIDTH 9 0
BBX 8 8 0 0
BITMAP
34
58
00
3C
66
C3
66
3C
ENDCHAR

STARTCHAR Odieresis
ENCODING 214
SWIDTH 833 0
DWIDTH 9 0
BBX 8 8 0 0
BITMAP
28
28
00
3C
66
C3
66
3C
ENDCHAR

STARTCHAR multiply
ENCODING 215
SWIDTH 606 0
DWIDTH 6 0
BBX 5 5 0 0
BITMAP
88
50
20
50
88
ENDCHAR

STARTCHAR Oslash
ENCODING 216
SWIDTH 833 0
DWIDTH 9 0
BBX 8 7 0 0
BITMAP
3D
66
CB
D3
E3
66
BC
ENDCHAR

STARTCHAR Ugrave
ENCODING 217
SWIDTH 778 0
DWIDTH 8 0
BBX 8 8 0 0
BITMAP
30
18
00
E7
62
62
76
3C
ENDCHAR

STARTCHAR Uacute
ENCODING 218
SWIDTH 778 0
DWIDTH 8 0
BBX 8 8 0 0
BITMAP
18
30
00
E7
62
62
76
3C
ENDCHAR

STARTCHAR Ucircumflex
ENCODING 219
SWIDTH 778 0
DWIDTH 8 0
BBX 8 8 0 0
BITMAP
18
2C
00
E7
62
62
76
3C
ENDCHAR

STARTCHAR Udieresis
ENCODING 220
SWIDTH 778 0
DWIDTH 8 0
BBX 8 8 0 0
BITMAP
28
28
00
E7
62
62
76
3C
ENDCHAR

STARTCHAR Yacute
ENCODING 221
SWIDTH 667 0
DWIDTH 7 0
BBX 8 8 -1 0
BITMAP
0C
18
00
E3
34
18
18
3C
ENDCHAR

STARTCHAR Thorn
ENCODING 222
SWIDTH 611 0
DWIDTH 6 0
BBX 6 7 0 0
BITMAP
E0
78
6C
6C
78
60
F0
ENDCHAR

STARTCHAR germandbls
ENCODING 223
SWIDTH 611 0
DWIDTH 8 0
BBX 7 7 0 0
BITMAP
38
64
6C
E8
66
66
DC
ENDCHAR

STARTCHAR agrave
ENCODING 224
SWIDTH 500 0
DWIDTH 5 0
BBX 4 8 0 0
BITMAP
C0
60
00
E0
30
F0
B0
F0
ENDCHAR

STARTCHAR aacute
ENCODING 225
SWIDTH 500 0
DWIDTH 5 0
BBX 4 8 0 0
BITMAP
60
C0
00
E0
30
F0
B0
F0
ENDCHAR

STARTCHAR acircumflex
ENCODING 226
SWIDTH 500 0
DWIDTH 5 0
BBX 4 8 0 0
BITMAP
60
B0
00
E0
30
F0
B0
F0
ENDCHAR

STARTCHAR atilde
ENCODING 227
SWIDTH 500 0
DWIDTH 5 0
BBX 5 8 0 0
BITMAP
68
B0
00
E0
30
F0
B0
F0
ENDCHAR

STARTCHAR adieresis
ENCODING 228
SWIDTH 500 0
DWIDTH 5 0
BBX 4 8 0 0
BITMAP
A0
A0
00
E0
30
F0
B0
F0
ENDCHAR

STARTCHAR aring
ENCODING 229
SWIDTH 500 0
DWIDTH 5 0
BBX 4 8 0 0
BITMAP
60
90
60
E0
30
F0
B0
F0
ENDCHAR

STARTCHAR ae
ENCODING 230
SWIDTH 778 0
DWIDTH 9 0
BBX 8 5 0 0
BITMAP
EE
3B
FF
B8
EF
ENDCHAR

STARTCHAR ccedilla
ENCODING 231
SWIDTH 444 0
DWIDTH 5 0
BBX 5 8 0 -3
BITMAP
70
D0
C0
C8
70
20
10
70
ENDCHAR

STARTCHAR egrave
ENCODING 232
SWIDTH 500 0
DWIDTH 6 0
BBX 5 8 0 0
BITMAP
60
30
00
70
D8
F8
C0
70
ENDCHAR

STARTCHAR eacute
ENCODING 233
SWIDTH 500 0
DWIDTH 6 0
BBX 5 8 0 0
BITMAP
30
60
00
70
D8
F8
C0
70
ENDCHAR

STARTCHAR ecircumflex
ENCODING 234
SWIDTH 500 0
DWIDTH 6 0
BBX 5 8 0 0
BITMAP
60
B0
00
70
D8
F8
C0
70
ENDCHAR

STARTCHAR edieresis
ENCODING 235
SWIDTH 500 0
DWIDTH 6 0
BBX 5 8 0 0
BITMAP
50
50
00
70
D8
F8
C0
70
ENDCHAR

STARTCHAR igrave
ENCODING 236
SWIDTH 333 0
DWIDTH 4 0
BBX 3 8 0 0
BITMAP
C0
60
00
E0
60
60
60
E0
ENDCHAR

STARTCHAR iacute
ENCODING 237
SWIDTH 333 0
DWIDTH 4 0
BBX 3 8 0 0
BITMAP
60
C0
00
E0
60
60
60
E0
ENDCHAR

STARTCHAR icircumflex
ENCODING 238
SWIDTH 333 0
DWIDTH 4 0
BBX 4 8 0 0
BITMAP
60
B0
00
E0
60
60
60
E0
ENDCHAR

STARTCHAR idieresis
ENCODING 239
SWIDTH 333 0
DWIDTH 4 0
BBX 3 8 0 0
BITMAP
A0
A0
00
E0
60
60
60
E0
ENDCHAR

STARTCHAR eth
ENCODING 240
SWIDTH 556 0
DWIDTH 6 0
BBX 5 8 0 0
BITMAP
D0
60
B0
78
D8
D8
D8
70
ENDCHAR

STARTCHAR ntilde
ENCODING 241
SWIDTH 611 0
DWIDTH 6 0
BBX 5 8 0 0
BITMAP
68
B0
00
F0
D8
D8
D8
D8
ENDCHAR

STARTCHAR ograve
ENCODING 242
SWIDTH 556 0
DWIDTH 6 0
BBX 5 8 0 0
BITMAP
60
30
00
70
D8
D8
D8
70
ENDCHAR

STARTCHAR oacute
ENCODING 243
SWIDTH 556 0
DWIDTH 6 0
BBX 5 8 0 0
BITMAP
30
60
00
70
D8
D8
D8
70
ENDCHAR

STARTCHAR ocircumflex
ENCODING 244
SWIDTH 556 0
DWIDTH 6 0
BBX 5 8 0 0
BITMAP
60
B0
00
70
D8
D8
D8
70
ENDCHAR

STARTCHAR otilde
ENCODING 245
SWIDTH 556 0
DWIDTH 6 0
BBX 5 8 0 0
BITMAP
68
B0
00
70
D8
D8
D8
70
ENDCHAR

STARTCHAR odieresis
ENCODING 246
SWIDTH 556 0
DWIDTH 6 0
BBX 5 8 0 0
BITMAP
50
50
00
70
D8
D8
D8
70
ENDCHAR

STARTCHAR divide
ENCODING 247
SWIDTH 606 0
DWIDTH 6 0
BBX 5 5 0 0
BITMAP
20
00
F8
00
20
ENDCHAR

STARTCHAR oslash
ENCODING 248
SWIDTH 556 0
DWIDTH 6 0
BBX 7 5 -1 0
BITMAP
3A
6C
7C
6C
B8
ENDCHAR

STARTCHAR ugrave
ENCODING 249
SWIDTH 611 0
DWIDTH 6 0
BBX 7 8 -1 0
BITMAP
30
18
00
EC
6C
6C
6C
36
ENDCHAR

STARTCHAR uacute
ENCODING 250
SWIDTH 611 0
DWIDTH 6 0
BBX 7 8 -1 0
BITMAP
18
30
00
EC
6C
6C
6C
36
ENDCHAR

STARTCHAR ucircumflex
ENCODING 251
SWIDTH 611 0
DWIDTH 6 0
BBX 7 8 -1 0
BITMAP
30
58
00
EC
6C
6C
6C
36
ENDCHAR

STARTCHAR udieresis
ENCODING 252
SWIDTH 611 0
DWIDTH 6 0
BBX 7 8 -1 0
BITMAP
28
28
00
EC
6C
6C
6C
36
ENDCHAR

STARTCHAR yacute
ENCODING 253
SWIDTH 556 0
DWIDTH 5 0
BBX 6 11 -1 -3
BITMAP
18
30
00
EC
6C
68
38
30
30
E0
C0
ENDCHAR

STARTCHAR thorn
ENCODING 254
SWIDTH 611 0
DWIDTH 6 0
BBX 6 10 -1 -3
BITMAP
E0
60
78
6C
6C
68
70
60
60
F0
ENDCHAR

STARTCHAR ydieresis
ENCODING 255
SWIDTH 556 0
DWIDTH 5 0
BBX 6 11 -1 -3
BITMAP
50
50
00
EC
6C
68
38
30
30
E0
C0
ENDCHAR
ENDFONT
